#!OML:ASF I:\Random Stuff\random\construction\7_22_03\Session 2\subj1.ASF
:FULLY-SPECIFIED
:DEGREES
236
root -2.5906 17.6958 0.550695 -108.449 88.4875 -113.018
lowerback -3.70239 0.279903 1.10758
upperback -3.86645 0.447818 1.0693
thorax -1.89486 0.248839 0.484174
lowerneck -24.4243 -3.38902 -1.27884
upperneck 33.2586 -4.32069 0.921927
head 15.9889 -1.60238 -0.210742
rclavicle -2.82026e-015 -9.54166e-015
rhumerus 2.74746 23.9547 -75.7253
rradius 80.4814
rwrist -40.6279
rhand -27.9397 2.25055
rfingers 7.12502
rthumb -1.32764 -27.7251
lclavicle -2.82026e-015 -9.54166e-015
lhumerus -33.9255 0.0790282 88.8975
lradius 26.4299
lwrist 28.6028
lhand -20.6239 57.9015
lfingers 7.12502
lthumb 5.73747 87.8038
rfemur -4.23533 24.1418 19.4548
rtibia 8.71732
rfoot -3.44424 -34.5186
rtoes -12.7589
lfemur -9.16948 -28.7949 -14.3206
ltibia 19.0978
lfoot -15.388 29.0936
ltoes -28.8141
237
root -2.58989 17.6995 0.550575 -110.405 88.3915 -115.042
lowerback -3.69215 0.304818 1.18963
upperback -3.85862 0.479792 1.08777
thorax -1.89218 0.263242 0.457767
lowerneck -24.4585 -3.3911 -1.2967
upperneck 33.2335 -4.32107 0.934723
head 15.9855 -1.60352 -0.202827
rclavicle 1.44119e-015 -1.39149e-014
rhumerus 1.89144 24.0906 -76.1411
rradius 80.3324
rwrist -40.5839
rhand -27.893 2.24983
rfingers 7.12502
rthumb -1.28259 -27.7261
lclavicle 1.44119e-015 -1.39149e-014
lhumerus -33.7761 -0.0239309 88.9998
lradius 26.286
lwrist 28.5358
lhand -20.64 57.8102
lfingers 7.12502
lthumb 5.72195 87.7129
rfemur -4.37406 24.0593 19.5136
rtibia 8.87325
rfoot -3.53402 -34.5391
rtoes -12.7228
lfemur -9.22699 -28.5474 -14.1857
ltibia 18.9436
lfoot -15.1018 28.882
ltoes -29.3306
238
root -2.58936 17.7036 0.550767 -112.469 88.3566 -117.154
lowerback -3.63663 0.300289 1.23111
upperback -3.8738 0.474534 1.08656
thorax -1.93861 0.259523 0.432769
lowerneck -24.4249 -3.36151 -1.42511
upperneck 33.2652 -4.28262 1.10671
head 16.0029 -1.57611 -0.0980189
rclavicle 4.60932e-015 1.11319e-014
rhumerus 1.00925 24.3014 -76.6117
rradius 80.1919
rwrist -40.427
rhand -27.832 2.22802
rfingers 7.12502
rthumb -1.22365 -27.7482
lclavicle 4.60932e-015 1.11319e-014
lhumerus -33.7774 -0.157891 89.0802
lradius 26.2306
lwrist 28.5661
lhand -20.7703 57.5371
lfingers 7.12502
lthumb 5.59611 87.4432
rfemur -4.30823 23.9937 19.5346
rtibia 8.68139
rfoot -3.08637 -34.5552
rtoes -13.7379
lfemur -9.30174 -27.9595 -14.1345
ltibia 18.8965
lfoot -14.9458 28.279
ltoes -29.5723
239
root -2.59152 17.707 0.553145 -115.242 88.3089 -119.977
lowerback -3.55096 0.28864 1.22223
upperback -3.90357 0.461922 1.08745
thorax -2.01732 0.253295 0.437759
lowerneck -24.411 -3.31548 -1.43766
upperneck 33.3787 -4.23222 1.1847
head 16.0575 -1.54003 -0.051065
rclavicle -3.47873e-016 -3.97569e-015
rhumerus 0.0590093 24.4877 -77.0914
rradius 80.1405
rwrist -40.3584
rhand -27.82 2.25417
rfingers 7.12502
rthumb -1.21202 -27.7221
lclavicle -3.47873e-016 -3.97569e-015
lhumerus -33.8893 -0.445788 89.1987
lradius 26.3103
lwrist 28.8013
lhand -20.8849 57.2607
lfingers 7.12502
lthumb 5.48546 87.1697
rfemur -4.19832 23.9032 19.5647
rtibia 8.39859
rfoot -2.64772 -34.5795
rtoes -14.5374
lfemur -9.43023 -27.4299 -14.0695
ltibia 18.9291
lfoot -14.8354 27.6757
ltoes -29.7384
240
root -2.59815 17.7103 0.55965 -119.619 88.1994 -124.492
lowerback -3.48844 0.272571 1.15728
upperback -3.98071 0.446964 1.10858
thorax -2.13255 0.248252 0.494934
lowerneck -24.3698 -3.27131 -1.29901
upperneck 33.4925 -4.18636 1.09634
head 16.0957 -1.51142 -0.102188
rclavicle -1.55301e-015 3.97569e-016
rhumerus -1.01021 24.5626 -77.5505
rradius 80.2167
rwrist -40.3261
rhand -27.6282 2.21801
rfingers 7.12502
rthumb -1.02684 -27.7593
lclavicle -1.55301e-015 3.97569e-016
lhumerus -33.9619 -0.669048 89.323
lradius 26.3716
lwrist 28.9284
lhand -20.9159 57.2157
lfingers 7.12502
lthumb 5.45556 87.1255
rfemur -4.25428 23.7303 19.5404
rtibia 8.17227
rfoot -2.75838 -34.5367
rtoes -13.8145
lfemur -9.69841 -26.7446 -13.8958
ltibia 18.9201
lfoot -14.611 26.923
ltoes -30.1561
241
root -2.58482 17.7061 0.551509 -117.978 88.1934 -122.871
lowerback -3.5976 0.337325 1.25457
upperback -3.95398 0.529217 1.11751
thorax -2.04333 0.287582 0.451817
lowerneck -24.3108 -3.2374 -1.10945
upperneck 33.5632 -4.13577 0.895045
head 16.1033 -1.49327 -0.209837
rclavicle -5.37961e-015 1.09332e-014
rhumerus -2.15379 24.604 -78.026
rradius 80.3945
rwrist -40.0545
rhand -27.3277 2.19326
rfingers 7.12502
rthumb -0.736557 -27.7852
lclavicle -5.37961e-015 1.09332e-014
lhumerus -33.8788 -0.576158 89.367
lradius 26.2295
lwrist 28.723
lhand -20.8898 57.1864
lfingers 7.12502
lthumb 5.48072 87.0955
rfemur -4.18603 23.7581 19.4974
rtibia 7.99189
rfoot -2.82582 -34.4497
rtoes -13.4551
lfemur -9.65441 -27.6951 -13.917
ltibia 18.9417
lfoot -14.8807 27.8452
ltoes -29.4992
242
root -2.59555 17.7141 0.556098 -123.717 88.0554 -128.785
lowerback -3.57206 0.27817 1.13159
upperback -3.99183 0.456386 1.18001
thorax -2.09809 0.255597 0.583289
lowerneck -24.3609 -3.18862 -1.01652
upperneck 33.58 -4.06964 0.809808
head 16.1168 -1.46597 -0.249733
rclavicle 3.72721e-016 -2.18663e-015
rhumerus -3.22062 24.6846 -78.4761
rradius 80.5791
rwrist -39.6621
rhand -27.1425 2.43466
rfingers 7.12502
rthumb -0.557687 -27.5444
lclavicle 3.72721e-016 -2.18663e-015
lhumerus -33.7042 -0.467945 89.4344
lradius 26.1407
lwrist 28.5706
lhand -20.8371 57.269
lfingers 7.12502
lthumb 5.53168 87.1768
rfemur -4.29366 23.5216 19.463
rtibia 7.80808
rfoot -2.5939 -34.4138
rtoes -13.5885
lfemur -10.0217 -26.723 -13.7352
ltibia 18.9732
lfoot -14.5655 26.7463
ltoes -30.0797
243
root -2.59028 17.7126 0.553196 -123.655 88.0532 -128.642
lowerback -3.54497 0.291207 1.12109
upperback -3.86854 0.468913 1.217
thorax -1.98636 0.261395 0.627536
lowerneck -24.5062 -3.12912 -1.09635
upperneck 33.5796 -4.00971 0.972166
head 16.1575 -1.42663 -0.155805
rclavicle -1.9133e-015 -9.14409e-015
rhumerus -4.1697 24.8177 -78.8526
rradius 80.7242
rwrist -39.4001
rhand -26.9863 2.59462
rfingers 7.12502
rthumb -0.406873 -27.3847
lclavicle -1.9133e-015 -9.14409e-015
lhumerus -33.5145 -0.47357 89.5372
lradius 26.2095
lwrist 28.5995
lhand -20.695 57.5638
lfingers 7.12502
lthumb 5.66882 87.468
rfemur -4.14747 23.5255 19.5033
rtibia 7.76162
rfoot -2.6339 -34.4244
rtoes -13.3387
lfemur -9.91129 -26.8081 -13.8015
ltibia 19.0032
lfoot -14.5929 26.8369
ltoes -30.1116
244
root -2.58716 17.7133 0.553626 -124.418 88.0273 -129.393
lowerback -3.48963 0.293223 1.11523
upperback -3.81616 0.470315 1.23775
thorax -1.96347 0.261832 0.651925
lowerneck -24.6117 -3.07821 -1.18174
upperneck 33.6206 -3.95726 1.13362
head 16.2095 -1.38956 -0.0617292
rclavicle -6.26172e-015 -8.94531e-015
rhumerus -5.12189 25.0128 -79.2058
rradius 80.8049
rwrist -39.1869
rhand -26.9754 2.78942
rfingers 7.12502
rthumb -0.396363 -27.19
lclavicle -6.26172e-015 -8.94531e-015
lhumerus -33.4506 -0.475284 89.6074
lradius 26.3223
lwrist 28.6624
lhand -20.5942 57.7025
lfingers 7.12502
lthumb 5.76613 87.604
rfemur -4.10539 23.4908 19.5225
rtibia 7.75061
rfoot -2.6685 -34.4225
rtoes -13.1675
lfemur -9.89674 -26.6992 -13.8077
ltibia 19.017
lfoot -14.5935 26.7138
ltoes -30.0827
245
root -2.58036 17.7115 0.551494 -124.247 87.9937 -129.233
lowerback -3.4785 0.308652 1.18262
upperback -3.78988 0.488984 1.25142
thorax -1.94233 0.269598 0.628538
lowerneck -24.6166 -3.01569 -1.22223
upperneck 33.6398 -3.88704 1.2482
head 16.2241 -1.34695 0.00992121
rclavicle 1.12065e-014 -1.39149e-015
rhumerus -6.03557 25.2683 -79.527
rradius 80.8196
rwrist -39.05
rhand -27.1424 3.21787
rfingers 7.12502
rthumb -0.557637 -26.7611
lclavicle 1.12065e-014 -1.39149e-015
lhumerus -33.51 -0.497753 89.6882
lradius 26.4977
lwrist 28.8815
lhand -20.7387 57.6158
lfingers 7.12502
lthumb 5.62666 87.5211
rfemur -4.10671 23.4762 19.5408
rtibia 7.75782
rfoot -2.72502 -34.4429
rtoes -13.1704
lfemur -9.90331 -27.0892 -13.7882
ltibia 19.0708
lfoot -14.7472 27.0338
ltoes -29.715
246
root -2.57327 17.7063 0.549199 -124.112 87.9422 -129.034
lowerback -3.44539 0.311313 1.2569
upperback -3.72172 0.488877 1.27319
thorax -1.89024 0.267493 0.609254
lowerneck -24.5445 -2.96146 -1.22128
upperneck 33.6009 -3.82662 1.30717
head 16.189 -1.31359 0.0491653
rclavicle -1.3418e-015 5.56597e-015
rhumerus -6.82198 25.5303 -79.7837
rradius 80.8592
rwrist -39.0846
rhand -27.1318 3.32843
rfingers 7.12502
rthumb -0.547415 -26.6506
lclavicle -1.3418e-015 5.56597e-015
lhumerus -33.5868 -0.584767 89.7794
lradius 26.7294
lwrist 29.2344
lhand -20.9018 57.5752
lfingers 7.12502
lthumb 5.46914 87.4846
rfemur -4.01015 23.454 19.6141
rtibia 7.75593
rfoot -2.80383 -34.4752
rtoes -13.1181
lfemur -9.82066 -27.4674 -13.7926
ltibia 19.1012
lfoot -14.8311 27.3513
ltoes -29.7472
247
root -2.56955 17.7072 0.547791 -124.863 87.905 -129.837
lowerback -3.47261 0.301105 1.29795
upperback -3.71058 0.473514 1.26888
thorax -1.8632 0.25887 0.581793
lowerneck -24.5121 -2.9183 -1.10639
upperneck 33.647 -3.77148 1.20953
head 16.1971 -1.28877 -0.000656482
rclavicle -2.11209e-015 1.27222e-014
rhumerus -7.55532 25.7467 -80.0588
rradius 80.8542
rwrist -39.0771
rhand -26.9804 3.4143
rfingers 7.12502
rthumb -0.401198 -26.5651
lclavicle -2.11209e-015 1.27222e-014
lhumerus -33.6934 -0.729035 89.8398
lradius 26.9384
lwrist 29.4971
lhand -20.6826 57.6309
lfingers 7.12502
lthumb 5.68076 87.5348
rfemur -4.04146 23.4093 19.6096
rtibia 7.75394
rfoot -2.81219 -34.467
rtoes -13.0485
lfemur -9.88054 -27.4001 -13.7578
ltibia 19.0849
lfoot -14.7715 27.2799
ltoes -30.0226
248
root -2.56711 17.7088 0.544983 -125.979 87.936 -130.982
lowerback -3.43197 0.281224 1.29003
upperback -3.71578 0.447481 1.24729
thorax -1.89111 0.24545 0.563341
lowerneck -24.5069 -2.83287 -0.934414
upperneck 33.7237 -3.65709 1.05905
head 16.2229 -1.23911 -0.0712778
rclavicle -8.28684e-015 -1.5704e-014
rhumerus -8.21471 25.98 -80.3847
rradius 80.7088
rwrist -38.927
rhand -26.9204 3.87403
rfingers 7.12502
rthumb -0.343162 -26.1054
lclavicle -8.28684e-015 -1.5704e-014
lhumerus -33.7911 -0.7395 89.8629
lradius 27.0177
lwrist 29.53
lhand -20.5039 57.5193
lfingers 7.12502
lthumb 5.85336 87.4184
rfemur -4.07302 23.393 19.5389
rtibia 7.79355
rfoot -2.75741 -34.4481
rtoes -13.2602
lfemur -9.88885 -27.3522 -13.8125
ltibia 19.0665
lfoot -14.8265 27.2215
ltoes -29.8325
249
root -2.56897 17.7146 0.545194 -127.649 87.9566 -132.789
lowerback -3.44577 0.222048 1.22365
upperback -3.75283 0.371443 1.25595
thorax -1.92194 0.209404 0.608089
lowerneck -24.4542 -2.72142 -0.81728
upperneck 33.7135 -3.5062 0.973515
head 16.1982 -1.17482 -0.0963318
rclavicle -7.37988e-015 -5.76476e-015
rhumerus -8.73553 26.234 -80.6849
rradius 80.5506
rwrist -38.8574
rhand -26.7963 4.35044
rfingers 7.12502
rthumb -0.223348 -25.6292
lclavicle -7.37988e-015 -5.76476e-015
lhumerus -33.9069 -0.743582 89.8851
lradius 27.0618
lwrist 29.5477
lhand -20.6603 57.2507
lfingers 7.12502
lthumb 5.70236 87.154
rfemur -4.25485 23.3526 19.4206
rtibia 7.83656
rfoot -2.70057 -34.4513
rtoes -13.395
lfemur -10.0521 -26.963 -13.7877
ltibia 19.0231
lfoot -14.7125 26.8279
ltoes -30.0092
